<svg xmlns="http://www.w3.org/2000/svg" xmlns:xlink="http://www.w3.org/1999/xlink" width="500" zoomAndPan="magnify" viewBox="0 0 375 374.999991" height="500" preserveAspectRatio="xMidYMid meet" version="1.0"><defs><g/><clipPath id="486f55b248"><rect x="0" width="135" y="0" height="321"/></clipPath></defs><g transform="matrix(1, 0, 0, 1, 54, 27)"><g clip-path="url(#486f55b248)"><g fill="#b8b7fb" fill-opacity="1"><g transform="translate(0.00944187, 211.417815)"><g><path d="M 28.21875 -81.984375 C 25.8125 -83.921875 23.726562 -86.921875 21.96875 -90.984375 C 20.207031 -95.054688 19.328125 -99.332031 19.328125 -103.8125 C 19.328125 -113.53125 22.773438 -121.351562 29.671875 -127.28125 C 36.566406 -133.207031 46.425781 -136.171875 59.25 -136.171875 C 70.414062 -136.171875 79.238281 -132.863281 85.71875 -126.25 C 91.363281 -120.519531 94.1875 -113.453125 94.1875 -105.046875 C 94.1875 -99.328125 92.050781 -95.878906 87.78125 -94.703125 L 67.625 -89.015625 C 50.9375 -84.328125 42.59375 -74.988281 42.59375 -61 C 42.59375 -53.550781 45.179688 -47.3125 50.359375 -42.28125 C 55.046875 -37.59375 60.660156 -35.25 67.203125 -35.25 C 69.679688 -35.25 71.851562 -35.734375 73.71875 -36.703125 C 75.582031 -37.671875 76.515625 -39.050781 76.515625 -40.84375 C 76.515625 -41.800781 76.1875 -42.554688 75.53125 -43.109375 C 74.875 -43.660156 74.03125 -43.9375 73 -43.9375 C 70.519531 -43.9375 68.625 -42.59375 67.3125 -39.90625 C 61.65625 -40.320312 57.015625 -42.546875 53.390625 -46.578125 C 49.773438 -50.609375 47.96875 -55.414062 47.96875 -61 C 47.96875 -66.582031 49.707031 -71.40625 53.1875 -75.46875 C 56.675781 -79.539062 62.070312 -82.644531 69.375 -84.78125 L 89.53125 -90.578125 C 95.738281 -92.367188 98.84375 -96.46875 98.84375 -102.875 C 102.707031 -104.320312 106.460938 -105.046875 110.109375 -105.046875 C 116.242188 -105.046875 121.519531 -102.84375 125.9375 -98.4375 C 130.28125 -93.882812 132.453125 -88.296875 132.453125 -81.671875 C 132.453125 -75.054688 130.585938 -69.800781 126.859375 -65.90625 C 123.140625 -62.019531 118.726562 -59.316406 113.625 -57.796875 L 111.96875 -57.28125 L 111.96875 -56.765625 C 111.96875 -54.835938 113.039062 -53.875 115.1875 -53.875 C 116.082031 -53.875 117.046875 -54.179688 118.078125 -54.796875 C 121.109375 -51.347656 122.625 -46.765625 122.625 -41.046875 C 122.625 -35.328125 121.363281 -29.726562 118.84375 -24.25 C 116.332031 -18.769531 112.664062 -13.992188 107.84375 -9.921875 C 97.082031 -0.753906 82.5 3.828125 64.09375 3.828125 C 45.695312 3.828125 30.773438 -0.515625 19.328125 -9.203125 C 7.472656 -17.953125 1.546875 -29.53125 1.546875 -43.9375 C 1.546875 -63.238281 10.4375 -75.921875 28.21875 -81.984375 Z M 28.21875 -81.984375 "/></g></g></g></g></g><g fill="#6d1627" fill-opacity="1"><g transform="translate(35.25974, 206.846881)"><g><path d="M 3.234375 0 C 3.828125 -1.851562 4.320312 -4.03125 4.71875 -6.53125 C 5.125 -9.03125 5.4375 -11.644531 5.65625 -14.375 C 5.882812 -17.101562 6 -19.691406 6 -22.140625 L 6 -30.40625 C 6 -32.851562 5.898438 -35.441406 5.703125 -38.171875 C 5.503906 -40.898438 5.191406 -43.523438 4.765625 -46.046875 C 4.335938 -48.578125 3.828125 -50.742188 3.234375 -52.546875 L 34.609375 -52.546875 L 44.515625 -34.609375 C 45.109375 -33.554688 45.601562 -32.601562 46 -31.75 C 46.40625 -30.894531 46.796875 -29.953125 47.171875 -28.921875 C 47.546875 -27.898438 47.984375 -26.59375 48.484375 -25 L 49.46875 -25 C 49.914062 -26.550781 50.300781 -27.785156 50.625 -28.703125 C 50.957031 -29.628906 51.332031 -30.53125 51.75 -31.40625 C 52.175781 -32.289062 52.738281 -33.359375 53.4375 -34.609375 L 63.421875 -52.546875 L 94.046875 -52.546875 C 93.503906 -50.742188 93.019531 -48.578125 92.59375 -46.046875 C 92.164062 -43.523438 91.847656 -40.898438 91.640625 -38.171875 C 91.441406 -35.441406 91.34375 -32.851562 91.34375 -30.40625 L 91.34375 -22.140625 C 91.34375 -19.691406 91.457031 -17.101562 91.6875 -14.375 C 91.914062 -11.644531 92.226562 -9.03125 92.625 -6.53125 C 93.03125 -4.03125 93.503906 -1.851562 94.046875 0 L 64.921875 0 C 65.429688 -1.601562 65.882812 -3.71875 66.28125 -6.34375 C 66.675781 -8.96875 67 -11.742188 67.25 -14.671875 C 67.5 -17.597656 67.625 -20.335938 67.625 -22.890625 L 67.625 -26.203125 L 66.4375 -26.203125 L 51.34375 0 L 45.5625 0 L 30.625 -26.203125 L 29.71875 -26.203125 L 29.71875 -22.890625 C 29.71875 -20.335938 29.84375 -17.597656 30.09375 -14.671875 C 30.34375 -11.742188 30.664062 -8.96875 31.0625 -6.34375 C 31.46875 -3.71875 31.921875 -1.601562 32.421875 0 Z M 3.234375 0 "/></g></g></g><g fill="#6d1627" fill-opacity="1"><g transform="translate(128.031698, 206.846881)"><g><path d="M 3.234375 0 C 3.828125 -1.851562 4.335938 -4.03125 4.765625 -6.53125 C 5.191406 -9.03125 5.503906 -11.644531 5.703125 -14.375 C 5.898438 -17.101562 6 -19.691406 6 -22.140625 L 6 -30.40625 C 6 -32.851562 5.882812 -35.441406 5.65625 -38.171875 C 5.4375 -40.898438 5.113281 -43.523438 4.6875 -46.046875 C 4.257812 -48.578125 3.773438 -50.742188 3.234375 -52.546875 L 63.578125 -52.546875 L 66.578125 -29.953125 C 65.328125 -30.898438 63.273438 -31.625 60.421875 -32.125 C 57.566406 -32.625 54.265625 -32.875 50.515625 -32.875 L 29.65625 -32.875 L 29.65625 -29.421875 L 43.765625 -29.421875 C 45.609375 -29.421875 47.484375 -29.457031 49.390625 -29.53125 C 51.296875 -29.613281 52.921875 -29.726562 54.265625 -29.875 L 54.265625 -22.515625 C 52.921875 -22.710938 51.296875 -22.847656 49.390625 -22.921875 C 47.484375 -23.003906 45.609375 -23.046875 43.765625 -23.046875 L 29.65625 -23.046875 L 29.65625 -19.671875 L 49.765625 -19.671875 C 54.617188 -19.671875 58.632812 -20.054688 61.8125 -20.828125 C 64.988281 -21.609375 67.425781 -22.625 69.125 -23.875 L 65.375 0 Z M 3.234375 0 "/></g></g></g><g fill="#6d1627" fill-opacity="1"><g transform="translate(193.707506, 206.846881)"><g><path d="M -2.40625 0 C -1.195312 -1.851562 0.0507812 -4.03125 1.34375 -6.53125 C 2.644531 -9.03125 3.910156 -11.644531 5.140625 -14.375 C 6.367188 -17.101562 7.429688 -19.691406 8.328125 -22.140625 L 11.484375 -30.40625 C 12.429688 -32.851562 13.34375 -35.441406 14.21875 -38.171875 C 15.09375 -40.898438 15.84375 -43.523438 16.46875 -46.046875 C 17.101562 -48.578125 17.519531 -50.742188 17.71875 -52.546875 L 55.328125 -52.546875 C 55.578125 -50.742188 56.015625 -48.578125 56.640625 -46.046875 C 57.265625 -43.523438 58 -40.898438 58.84375 -38.171875 C 59.695312 -35.441406 60.597656 -32.851562 61.546875 -30.40625 L 64.78125 -22.140625 C 65.726562 -19.691406 66.789062 -17.101562 67.96875 -14.375 C 69.144531 -11.644531 70.382812 -9.03125 71.6875 -6.53125 C 72.988281 -4.03125 74.238281 -1.851562 75.4375 0 L 46.015625 0 C 45.960938 -1.5 45.785156 -3.1875 45.484375 -5.0625 C 45.179688 -6.9375 44.757812 -9.050781 44.21875 -11.40625 L 43.984375 -12.234375 L 29.046875 -12.234375 L 28.828125 -11.328125 C 28.273438 -8.984375 27.859375 -6.882812 27.578125 -5.03125 C 27.304688 -3.175781 27.117188 -1.5 27.015625 0 Z M 32.046875 -19.671875 L 41.0625 -19.671875 L 39.109375 -24.703125 C 38.453125 -26.347656 38.007812 -27.90625 37.78125 -29.375 C 37.5625 -30.851562 37.328125 -32.472656 37.078125 -34.234375 L 35.953125 -34.234375 C 35.703125 -32.328125 35.460938 -30.707031 35.234375 -29.375 C 35.015625 -28.050781 34.578125 -26.492188 33.921875 -24.703125 Z M 32.046875 -19.671875 "/></g></g></g><g fill="#6d1627" fill-opacity="1"><g transform="translate(262.235524, 206.846881)"><g><path d="M 52.171875 1.125 C 49.117188 1.125 46.414062 0.9375 44.0625 0.5625 C 41.707031 0.1875 39.414062 -0.257812 37.1875 -0.78125 C 34.96875 -1.3125 32.554688 -1.765625 29.953125 -2.140625 C 27.347656 -2.515625 24.269531 -2.703125 20.71875 -2.703125 C 16.3125 -2.703125 12.617188 -2.238281 9.640625 -1.3125 C 6.660156 -0.382812 4.523438 0.425781 3.234375 1.125 C 3.828125 -0.726562 4.320312 -3.003906 4.71875 -5.703125 C 5.125 -8.410156 5.4375 -11.210938 5.65625 -14.109375 C 5.882812 -17.015625 6 -19.691406 6 -22.140625 L 6 -30.40625 C 6 -32.851562 5.882812 -35.441406 5.65625 -38.171875 C 5.4375 -40.898438 5.113281 -43.523438 4.6875 -46.046875 C 4.257812 -48.578125 3.773438 -50.742188 3.234375 -52.546875 L 32.421875 -52.546875 C 31.972656 -51.191406 31.570312 -49.472656 31.21875 -47.390625 C 30.875 -45.316406 30.578125 -43.078125 30.328125 -40.671875 C 30.078125 -38.273438 29.890625 -35.910156 29.765625 -33.578125 C 29.640625 -31.253906 29.578125 -29.171875 29.578125 -27.328125 L 29.578125 -20.265625 L 45.03125 -20.265625 C 48.488281 -20.265625 51.71875 -20.585938 54.71875 -21.234375 C 57.71875 -21.890625 60.144531 -22.769531 62 -23.875 L 62 -1.34375 C 62 -1.34375 61.570312 -1.144531 60.71875 -0.75 C 59.875 -0.351562 58.710938 0.0546875 57.234375 0.484375 C 55.753906 0.910156 54.066406 1.125 52.171875 1.125 Z M 52.171875 1.125 "/></g></g></g><g fill="#6d1627" fill-opacity="1"><g transform="translate(45.886068, 149.223602)"><g><path d="M 37.609375 1.125 C 27.046875 1.125 19.0625 -0.9375 13.65625 -5.0625 C 8.25 -9.195312 5.546875 -15.566406 5.546875 -24.171875 L 5.546875 -30.40625 C 5.546875 -32.851562 5.429688 -35.441406 5.203125 -38.171875 C 4.984375 -40.898438 4.671875 -43.523438 4.265625 -46.046875 C 3.867188 -48.578125 3.375 -50.742188 2.78125 -52.546875 L 31.90625 -52.546875 C 31.351562 -50.742188 30.875 -48.523438 30.46875 -45.890625 C 30.070312 -43.265625 29.757812 -40.550781 29.53125 -37.75 C 29.3125 -34.945312 29.203125 -32.320312 29.203125 -29.875 L 29.203125 -28.53125 C 29.203125 -25.875 29.925781 -23.628906 31.375 -21.796875 C 32.820312 -19.972656 34.925781 -19.0625 37.6875 -19.0625 C 40.4375 -19.0625 42.535156 -19.972656 43.984375 -21.796875 C 45.429688 -23.628906 46.15625 -25.875 46.15625 -28.53125 L 46.15625 -29.875 C 46.15625 -32.320312 46.039062 -34.945312 45.8125 -37.75 C 45.59375 -40.550781 45.28125 -43.265625 44.875 -45.890625 C 44.476562 -48.523438 43.984375 -50.742188 43.390625 -52.546875 L 72.515625 -52.546875 C 71.960938 -50.742188 71.484375 -48.578125 71.078125 -46.046875 C 70.679688 -43.523438 70.367188 -40.898438 70.140625 -38.171875 C 69.921875 -35.441406 69.8125 -32.851562 69.8125 -30.40625 L 69.8125 -24.171875 C 69.8125 -16.015625 67.21875 -9.757812 62.03125 -5.40625 C 56.851562 -1.050781 48.710938 1.125 37.609375 1.125 Z M 37.609375 1.125 "/></g></g></g></svg>